<svg version="1.1" id="Layer_1" xmlns="http://www.w3.org/2000/svg" x="0" y="0" viewBox="0 0 1000 1000" style="enable-background:new 0 0 1000 1000" xml:space="preserve"><style>.st1{fill:#d1d3d4}.st2{fill:#e62176}.st3{fill:#410099}.st4{fill:#930c4d}.st5{fill:#ce2c79}.st6{fill:#340087}.st7{fill:#bd1b61}.st8{fill:#fff}</style><path style="fill:#e5e5e5" d="M0 0h1000v1000H0z"/><path class="st1" d="M746.8 306.8v421.4c0 32.3-26.2 58.4-58.4 58.4h-432c-21.5 0-40.3-11.7-50.5-29-17.3-10.1-29-28.9-29-50.5V296.2c0-32.3 26.2-58.4 58.4-58.4H294v10.5h66.6v-10.5h30.1v10.5h66.6v-10.5h30.1v10.5H554v-10.5h30.1v10.5h66.6v-10.5h16.7c4.6 0 9.1.5 13.4 1.6v8.9h7.6c5.2 0 10.2.7 15.1 2 24.9 6.6 43.3 29.4 43.3 56.5z"/><path class="st1" d="M292.5 208.4c1 1.8 1.6 3.8 1.6 6v23.5H264v-23.5c0-6.6 5.4-12 12-12h6c4.5-.1 8.4 2.4 10.5 6zM389.2 208.5c1 1.8 1.6 3.8 1.6 5.9v23.5h-30.1v-23.5c0-6.6 5.4-12 12-12h6c4.5-.1 8.4 2.4 10.5 6.1zM485.8 208.3c1.1 1.8 1.7 3.9 1.7 6.1v23.5h-30.1v-23.5c0-6.6 5.4-12 12-12h6c4.4-.1 8.3 2.3 10.4 5.9zM582.4 208.3c1 1.8 1.7 3.9 1.7 6.1v23.5H554v-23.5c0-6.6 5.4-12 12-12h6c4.5-.1 8.3 2.3 10.4 5.9zM680.7 214.4v25c-4.3-1-8.8-1.6-13.4-1.6h-16.7v-23.5c0-6.6 5.4-12 12-12h6c4.5 0 8.4 2.4 10.4 6.1 1.2 1.8 1.7 3.8 1.7 6z"/><path class="st1" d="M294.1 237.8h66.6v10.5h-66.6zM390.8 237.8h66.6v10.5h-66.6zM487.4 237.8H554v10.5h-66.6zM584.1 237.8h66.6v10.5h-66.6zM703.4 250.3c-4.8-1.3-9.8-2-15.1-2h-7.6v-8.9c8.4 1.9 16.1 5.7 22.7 10.9z"/><path class="st2" d="M725.8 285.7v410.9c0 32.3-26.2 58.4-58.4 58.4h-432c-32.3 0-58.4-26.2-58.4-58.4V285.7c0-32.3 26.2-58.4 58.4-58.4h432c32.2 0 58.4 26.2 58.4 58.4z"/><path class="st3" d="M725.8 285.7v94.7H177v-94.7c0-32.3 26.2-58.4 58.4-58.4h432c32.2 0 58.4 26.2 58.4 58.4z"/><circle transform="rotate(-9.177 257.946 260.852)" class="st4" cx="258" cy="260.9" r="16.5"/><path class="st2" d="M273.1 259.7c0 6.6-5.4 12-12 12h-6c-6.6 0-12-5.4-12-12v-66.3c0-6.6 5.4-12 12-12h6c6.6 0 12 5.4 12 12v66.3z"/><path class="st5" d="M273.1 193.4v66.3c0 6.6-5.4 12-12 12h-3v-90.4h3c6.6 0 12 5.4 12 12.1z"/><circle transform="matrix(.9952 -.09822 .09822 .9952 -23.91 36.1)" class="st4" cx="354.7" cy="260.9" r="16.5"/><path class="st2" d="M369.7 259.7c0 6.6-5.4 12-12 12h-6c-6.6 0-12-5.4-12-12v-66.3c0-6.6 5.4-12 12-12h6c6.6 0 12 5.4 12 12v66.3z"/><path class="st5" d="M369.7 193.4v66.3c0 6.6-5.4 12-12 12h-3v-90.4h3c6.6 0 12 5.4 12 12.1z"/><circle transform="rotate(-6.99 451.358 260.884)" class="st4" cx="451.4" cy="260.9" r="16.5"/><path class="st2" d="M466.4 259.7c0 6.6-5.4 12-12 12h-6c-6.6 0-12-5.4-12-12v-66.3c0-6.6 5.4-12 12-12h6c6.6 0 12 5.4 12 12v66.3z"/><path class="st5" d="M466.4 193.4v66.3c0 6.6-5.4 12-12 12h-3v-90.4h3c6.6 0 12 5.4 12 12.1z"/><circle transform="rotate(-29.618 548.085 260.906)" class="st4" cx="548" cy="260.9" r="16.5"/><path class="st2" d="M563.1 259.7c0 6.6-5.4 12-12 12h-6c-6.6 0-12-5.4-12-12v-66.3c0-6.6 5.4-12 12-12h6c6.6 0 12 5.4 12 12v66.3z"/><path class="st5" d="M563.1 193.4v66.3c0 6.6-5.4 12-12 12h-3v-90.4h3c6.6 0 12 5.4 12 12.1z"/><circle transform="rotate(-4.91 644.675 260.885) scale(.99997)" class="st4" cx="644.7" cy="260.9" r="16.5"/><path class="st2" d="M659.7 259.7c0 6.6-5.4 12-12 12h-6c-6.6 0-12-5.4-12-12v-66.3c0-6.6 5.4-12 12-12h6c6.6 0 12 5.4 12 12v66.3z"/><path class="st5" d="M659.7 193.4v66.3c0 6.6-5.4 12-12 12h-3v-90.4h3c6.6 0 12 5.4 12 12.1z"/><path class="st6" d="M177 371.3h548.8v9.2H177z"/><path class="st7" d="M177 380.5h548.8v9.2H177z"/><path class="st8" d="M270 488.7h-23.9c-8.6 0-15.6-7-15.6-15.6v-23.9c0-8.6 7-15.6 15.6-15.6H270c8.6 0 15.6 7 15.6 15.6v23.9c-.1 8.6-7 15.6-15.6 15.6zM366.6 488.7h-23.9c-8.6 0-15.6-7-15.6-15.6v-23.9c0-8.6 7-15.6 15.6-15.6h23.9c8.6 0 15.6 7 15.6 15.6v23.9c0 8.6-7 15.6-15.6 15.6zM463.3 488.7h-23.9c-8.6 0-15.6-7-15.6-15.6v-23.9c0-8.6 7-15.6 15.6-15.6h23.9c8.6 0 15.6 7 15.6 15.6v23.9c0 8.6-7 15.6-15.6 15.6zM560 488.7h-23.9c-8.6 0-15.6-7-15.6-15.6v-23.9c0-8.6 7-15.6 15.6-15.6H560c8.6 0 15.6 7 15.6 15.6v23.9c-.1 8.6-7 15.6-15.6 15.6zM656.6 488.7h-23.9c-8.6 0-15.6-7-15.6-15.6v-23.9c0-8.6 7-15.6 15.6-15.6h23.9c8.6 0 15.6 7 15.6 15.6v23.9c0 8.6-7 15.6-15.6 15.6zM270 586.4h-23.9c-8.6 0-15.6-7-15.6-15.6V547c0-8.6 7-15.6 15.6-15.6H270c8.6 0 15.6 7 15.6 15.6v23.9c-.1 8.6-7 15.5-15.6 15.5zM366.6 586.4h-23.9c-8.6 0-15.6-7-15.6-15.6V547c0-8.6 7-15.6 15.6-15.6h23.9c8.6 0 15.6 7 15.6 15.6v23.9c0 8.6-7 15.5-15.6 15.5zM463.3 586.4h-23.9c-8.6 0-15.6-7-15.6-15.6V547c0-8.6 7-15.6 15.6-15.6h23.9c8.6 0 15.6 7 15.6 15.6v23.9c0 8.6-7 15.5-15.6 15.5zM560 586.4h-23.9c-8.6 0-15.6-7-15.6-15.6V547c0-8.6 7-15.6 15.6-15.6H560c8.6 0 15.6 7 15.6 15.6v23.9c-.1 8.6-7 15.5-15.6 15.5zM656.6 586.4h-23.9c-8.6 0-15.6-7-15.6-15.6V547c0-8.6 7-15.6 15.6-15.6h23.9c8.6 0 15.6 7 15.6 15.6v23.9c0 8.6-7 15.5-15.6 15.5zM270 684.2h-23.9c-8.6 0-15.6-7-15.6-15.6v-23.9c0-8.6 7-15.6 15.6-15.6H270c8.6 0 15.6 7 15.6 15.6v23.9c-.1 8.6-7 15.6-15.6 15.6z"/><path d="M366.6 684.2h-23.9c-8.6 0-15.6-7-15.6-15.6v-23.9c0-8.6 7-15.6 15.6-15.6h23.9c8.6 0 15.6 7 15.6 15.6v23.9c0 8.6-7 15.6-15.6 15.6z" style="fill:#05f2d2"/><path class="st8" d="M463.3 684.2h-23.9c-8.6 0-15.6-7-15.6-15.6v-23.9c0-8.6 7-15.6 15.6-15.6h23.9c8.6 0 15.6 7 15.6 15.6v23.9c0 8.6-7 15.6-15.6 15.6zM560 684.2h-23.9c-8.6 0-15.6-7-15.6-15.6v-23.9c0-8.6 7-15.6 15.6-15.6H560c8.6 0 15.6 7 15.6 15.6v23.9c-.1 8.6-7 15.6-15.6 15.6zM656.6 684.2h-23.9c-8.6 0-15.6-7-15.6-15.6v-23.9c0-8.6 7-15.6 15.6-15.6h23.9c8.6 0 15.6 7 15.6 15.6v23.9c0 8.6-7 15.6-15.6 15.6z"/><circle transform="rotate(-45.001 734.165 660.389)" class="st1" cx="734.2" cy="660.4" r="158.3"/><circle class="st3" cx="725.8" cy="652" r="158.3"/><path class="st6" d="M884.1 652c0 87.4-70.9 158.3-158.3 158.3-43.7 0-83.3-17.7-111.9-46.4L837.7 540c28.6 28.7 46.4 68.3 46.4 112z"/><circle cx="725.8" cy="652" r="130.5" style="fill:#f1f2f2"/><path d="M612 715.9c-35-62.2-13.5-141.2 48.5-177s141.2-15 177.6 46.5c-32.5-54.5-108.4-69.7-170.3-34-62 35.8-86.8 109.2-55.8 164.5z" style="fill:#e6e7e8"/><circle class="st2" cx="725.8" cy="541.6" r="7.3"/><path class="st2" d="M676.9 552.7c2 3.5.8 7.9-2.7 10-3.5 2-7.9.8-10-2.7-2-3.5-.8-7.9 2.7-10 3.5-2 8-.8 10 2.7zM633.8 590.4c3.5 2 4.7 6.5 2.7 10s-6.5 4.7-10 2.7-4.7-6.5-2.7-10 6.5-4.7 10-2.7z"/><circle class="st2" cx="615.3" cy="652" r="7.3"/><path class="st2" d="M626.5 700.9c3.5-2 7.9-.8 10 2.7 2 3.5.8 7.9-2.7 10-3.5 2-7.9.8-10-2.7-2-3.6-.8-8 2.7-10zM664.2 744c2-3.5 6.5-4.7 10-2.7s4.7 6.5 2.7 10-6.5 4.7-10 2.7c-3.5-2.1-4.7-6.6-2.7-10z"/><circle class="st2" cx="725.8" cy="762.4" r="7.3"/><path class="st2" d="M774.7 751.2c-2-3.5-.8-7.9 2.7-10 3.5-2 7.9-.8 10 2.7 2 3.5.8 7.9-2.7 10-3.6 2-8 .8-10-2.7zM817.7 713.5c-3.5-2-4.7-6.5-2.7-10s6.5-4.7 10-2.7 4.7 6.5 2.7 10-6.5 4.7-10 2.7z"/><circle class="st2" cx="836.2" cy="652" r="7.3"/><path class="st2" d="M825 603.1c-3.5 2-7.9.8-10-2.7-2-3.5-.8-7.9 2.7-10 3.5-2 7.9-.8 10 2.7 2 3.5.8 8-2.7 10zM787.3 560c-2 3.5-6.5 4.7-10 2.7s-4.7-6.5-2.7-10 6.5-4.7 10-2.7 4.7 6.5 2.7 10z"/><path class="st3" d="M725.8 675.4c-2.7 0-5-2.2-5-5V564.9c0-2.7 2.2-5 5-5 2.7 0 5 2.2 5 5v105.6c-.1 2.7-2.3 4.9-5 4.9z"/><path class="st3" d="M797 658.4h-89.8c-3.5 0-6.4-2.9-6.4-6.4 0-3.5 2.9-6.4 6.4-6.4H797c3.5 0 6.4 2.9 6.4 6.4 0 3.5-2.8 6.4-6.4 6.4z"/><circle class="st3" cx="725.8" cy="652" r="14"/><path class="st7" d="m327.3 623.4-12.6-54.7c8.2-15.3 12.6-32.4 12.6-49.9 0-58.2-47.4-105.6-105.6-105.6-58.3 0-105.7 47.4-105.7 105.6 0 58.3 47.4 105.7 105.7 105.7 15.7 0 31.4-3.7 45.4-10.4l52.4 16.5c4.5 1.5 8.9-2.6 7.8-7.2z"/><path class="st3" d="m318.9 615-12.6-54.7c8.2-15.3 12.6-32.4 12.6-49.9 0-58.2-47.4-105.6-105.6-105.6-58.3 0-105.7 47.4-105.7 105.6 0 58.3 47.4 105.7 105.7 105.7 15.7 0 31.4-3.7 45.4-10.4l52.4 16.5c4.5 1.5 8.9-2.6 7.8-7.2z"/><path class="st6" d="M197.3 567.2c-1.7 0-3.2-.6-4.4-1.8l-42.5-42.6c-1.2-1.2-1.8-2.7-1.8-4.4 0-1.7.6-3.2 1.8-4.4l12.5-12.5c1.2-1.2 2.7-1.8 4.4-1.8 1.6 0 3.2.6 4.4 1.8l25.6 25.6 68.7-68.7c1.2-1.2 2.7-1.8 4.4-1.8 1.6 0 3.2.6 4.4 1.8l12.6 12.6c1.2 1.2 1.8 2.7 1.8 4.4 0 1.7-.6 3.2-1.8 4.4l-85.6 85.6c-1.3 1.2-2.9 1.8-4.5 1.8z"/><path class="st8" d="M192.3 566.2c-1.7 0-3.2-.6-4.4-1.8l-42.5-42.6c-1.2-1.2-1.8-2.7-1.8-4.4 0-1.7.6-3.2 1.8-4.4l12.5-12.5c1.2-1.2 2.7-1.8 4.4-1.8 1.6 0 3.2.6 4.4 1.8l25.6 25.6 68.7-68.7c1.2-1.2 2.7-1.8 4.4-1.8 1.6 0 3.2.6 4.4 1.8l12.6 12.6c1.2 1.2 1.8 2.7 1.8 4.4 0 1.7-.6 3.2-1.8 4.4l-85.6 85.6c-1.3 1.2-2.9 1.8-4.5 1.8z"/></svg>