<?xml version="1.0" encoding="utf-8"?> 
<svg version="1.1" id="Layer_1" xmlns="http://www.w3.org/2000/svg" xmlns:xlink="http://www.w3.org/1999/xlink" x="0px" y="0px"
	 viewBox="0 0 1000 1000" style="enable-background:new 0 0 1000 1000;" xml:space="preserve">
<style type="text/css"> .st0{fill:#E5E5E5;}
	.st1{fill:#D1D3D4;}
	.st2{fill:#E62176;}
	.st3{fill:#410099;}
	.st4{fill:#930C4D;}
	.st5{fill:#CE2C79;}
	.st6{fill:#340087;}
	.st7{fill:#BD1B61;}
	.st8{fill:#FFFFFF;}
	.st9{fill:#05F2D2;}
	.st10{fill:#F1F2F2;}
	.st11{fill:#E6E7E8;}
</style>
<rect class="st0" width="1000" height="1000"/>
<path class="st1" d="M746.8,306.8v421.4c0,32.3-26.2,58.4-58.4,58.4H256.4c-21.5,0-40.3-11.7-50.5-29c-17.3-10.1-29-28.9-29-50.5
	V296.2c0-32.3,26.2-58.4,58.4-58.4h58.7v10.5h66.6v-10.5h30.1v10.5h66.6v-10.5h30.1v10.5H554v-10.5h30.1v10.5h66.6v-10.5h16.7
	c4.6,0,9.1,0.5,13.4,1.6v8.9h7.6c5.2,0,10.2,0.7,15.1,2h0C728.4,256.9,746.8,279.7,746.8,306.8z"/>
<path class="st1" d="M292.5,208.4c1,1.8,1.6,3.8,1.6,6v23.5H264v-23.5c0-6.6,5.4-12,12-12h6C286.5,202.3,290.4,204.8,292.5,208.4z"
	/>
<path class="st1" d="M389.2,208.5c1,1.8,1.6,3.8,1.6,5.9v23.5h-30.1v-23.5c0-6.6,5.4-12,12-12h6
	C383.2,202.3,387.1,204.8,389.2,208.5z"/>
<path class="st1" d="M485.8,208.3c1.1,1.8,1.7,3.9,1.7,6.1v23.5h-30.1v-23.5c0-6.6,5.4-12,12-12h6
	C479.8,202.3,483.7,204.7,485.8,208.3z"/>
<path class="st1" d="M582.4,208.3c1,1.8,1.7,3.9,1.7,6.1v23.5H554v-23.5c0-6.6,5.4-12,12-12h6C576.5,202.3,580.3,204.7,582.4,208.3z
	"/>
<path class="st1" d="M680.7,214.4v25c-4.3-1-8.8-1.6-13.4-1.6h-16.7v-23.5c0-6.6,5.4-12,12-12h6c4.5,0,8.4,2.4,10.4,6.1
	C680.2,210.2,680.7,212.2,680.7,214.4z"/>
<rect x="294.1" y="237.8" class="st1" width="66.6" height="10.5"/>
<rect x="390.8" y="237.8" class="st1" width="66.6" height="10.5"/>
<rect x="487.4" y="237.8" class="st1" width="66.6" height="10.5"/>
<rect x="584.1" y="237.8" class="st1" width="66.6" height="10.5"/>
<path class="st1" d="M703.4,250.3c-4.8-1.3-9.8-2-15.1-2h-7.6v-8.9C689.1,241.3,696.8,245.1,703.4,250.3z"/>
<path class="st2" d="M725.8,285.7v410.9c0,32.3-26.2,58.4-58.4,58.4h-432c-32.3,0-58.4-26.2-58.4-58.4V285.7
	c0-32.3,26.2-58.4,58.4-58.4h432C699.6,227.3,725.8,253.5,725.8,285.7z"/>
<path class="st3" d="M725.8,285.7v94.7H177v-94.7c0-32.3,26.2-58.4,58.4-58.4h432C699.6,227.3,725.8,253.5,725.8,285.7z"/>
<g>
	
		<ellipse transform="matrix(0.9872 -0.1594 0.1594 0.9872 -38.2781 44.4555)" class="st4" cx="258" cy="260.9" rx="16.5" ry="16.5"/>
	<g>
		<path class="st2" d="M273.1,259.7c0,6.6-5.4,12-12,12h-6c-6.6,0-12-5.4-12-12v-66.3c0-6.6,5.4-12,12-12h6c6.6,0,12,5.4,12,12
			V259.7z"/>
		<path class="st5" d="M273.1,193.4v66.3c0,6.6-5.4,12-12,12h-3v-90.4h3C267.7,181.3,273.1,186.7,273.1,193.4z"/>
	</g>
</g>
<g>
	
		<ellipse transform="matrix(0.9952 -9.821804e-02 9.821804e-02 0.9952 -23.9091 36.0996)" class="st4" cx="354.7" cy="260.9" rx="16.5" ry="16.5"/>
	<g>
		<path class="st2" d="M369.7,259.7c0,6.6-5.4,12-12,12h-6c-6.6,0-12-5.4-12-12v-66.3c0-6.6,5.4-12,12-12h6c6.6,0,12,5.4,12,12
			V259.7z"/>
		<path class="st5" d="M369.7,193.4v66.3c0,6.6-5.4,12-12,12h-3v-90.4h3C364.3,181.3,369.7,186.7,369.7,193.4z"/>
	</g>
</g>
<g>
	
		<ellipse transform="matrix(0.9926 -0.1217 0.1217 0.9926 -28.3947 56.8694)" class="st4" cx="451.4" cy="260.9" rx="16.5" ry="16.5"/>
	<g>
		<path class="st2" d="M466.4,259.7c0,6.6-5.4,12-12,12h-6c-6.6,0-12-5.4-12-12v-66.3c0-6.6,5.4-12,12-12h6c6.6,0,12,5.4,12,12
			V259.7z"/>
		<path class="st5" d="M466.4,193.4v66.3c0,6.6-5.4,12-12,12h-3v-90.4h3C461,181.3,466.4,186.7,466.4,193.4z"/>
	</g>
</g>
<g>
	
		<ellipse transform="matrix(0.8693 -0.4942 0.4942 0.8693 -57.3282 304.9532)" class="st4" cx="548" cy="260.9" rx="16.5" ry="16.5"/>
	<g>
		<path class="st2" d="M563.1,259.7c0,6.6-5.4,12-12,12h-6c-6.6,0-12-5.4-12-12v-66.3c0-6.6,5.4-12,12-12h6c6.6,0,12,5.4,12,12
			V259.7z"/>
		<path class="st5" d="M563.1,193.4v66.3c0,6.6-5.4,12-12,12h-3v-90.4h3C557.7,181.3,563.1,186.7,563.1,193.4z"/>
	</g>
</g>
<g>
	
		<ellipse transform="matrix(0.9963 -8.559036e-02 8.559036e-02 0.9963 -19.9639 56.1371)" class="st4" cx="644.7" cy="260.9" rx="16.5" ry="16.5"/>
	<g>
		<path class="st2" d="M659.7,259.7c0,6.6-5.4,12-12,12h-6c-6.6,0-12-5.4-12-12v-66.3c0-6.6,5.4-12,12-12h6c6.6,0,12,5.4,12,12
			V259.7z"/>
		<path class="st5" d="M659.7,193.4v66.3c0,6.6-5.4,12-12,12h-3v-90.4h3C654.3,181.3,659.7,186.7,659.7,193.4z"/>
	</g>
</g>
<rect x="177" y="371.3" class="st6" width="548.8" height="9.2"/>
<rect x="177" y="380.5" class="st7" width="548.8" height="9.2"/>
<path class="st8" d="M270,488.7h-23.9c-8.6,0-15.6-7-15.6-15.6v-23.9c0-8.6,7-15.6,15.6-15.6H270c8.6,0,15.6,7,15.6,15.6v23.9
	C285.5,481.7,278.6,488.7,270,488.7z"/>
<path class="st8" d="M366.6,488.7h-23.9c-8.6,0-15.6-7-15.6-15.6v-23.9c0-8.6,7-15.6,15.6-15.6h23.9c8.6,0,15.6,7,15.6,15.6v23.9
	C382.2,481.7,375.2,488.7,366.6,488.7z"/>
<path class="st8" d="M463.3,488.7h-23.9c-8.6,0-15.6-7-15.6-15.6v-23.9c0-8.6,7-15.6,15.6-15.6h23.9c8.6,0,15.6,7,15.6,15.6v23.9
	C478.9,481.7,471.9,488.7,463.3,488.7z"/>
<path class="st8" d="M560,488.7h-23.9c-8.6,0-15.6-7-15.6-15.6v-23.9c0-8.6,7-15.6,15.6-15.6H560c8.6,0,15.6,7,15.6,15.6v23.9
	C575.5,481.7,568.6,488.7,560,488.7z"/>
<path class="st8" d="M656.6,488.7h-23.9c-8.6,0-15.6-7-15.6-15.6v-23.9c0-8.6,7-15.6,15.6-15.6h23.9c8.6,0,15.6,7,15.6,15.6v23.9
	C672.2,481.7,665.2,488.7,656.6,488.7z"/>
<path class="st8" d="M270,586.4h-23.9c-8.6,0-15.6-7-15.6-15.6V547c0-8.6,7-15.6,15.6-15.6H270c8.6,0,15.6,7,15.6,15.6v23.9
	C285.5,579.5,278.6,586.4,270,586.4z"/>
<path class="st8" d="M366.6,586.4h-23.9c-8.6,0-15.6-7-15.6-15.6V547c0-8.6,7-15.6,15.6-15.6h23.9c8.6,0,15.6,7,15.6,15.6v23.9
	C382.2,579.5,375.2,586.4,366.6,586.4z"/>
<path class="st8" d="M463.3,586.4h-23.9c-8.6,0-15.6-7-15.6-15.6V547c0-8.6,7-15.6,15.6-15.6h23.9c8.6,0,15.6,7,15.6,15.6v23.9
	C478.9,579.5,471.9,586.4,463.3,586.4z"/>
<path class="st8" d="M560,586.4h-23.9c-8.6,0-15.6-7-15.6-15.6V547c0-8.6,7-15.6,15.6-15.6H560c8.6,0,15.6,7,15.6,15.6v23.9
	C575.5,579.5,568.6,586.4,560,586.4z"/>
<path class="st8" d="M656.6,586.4h-23.9c-8.6,0-15.6-7-15.6-15.6V547c0-8.6,7-15.6,15.6-15.6h23.9c8.6,0,15.6,7,15.6,15.6v23.9
	C672.2,579.5,665.2,586.4,656.6,586.4z"/>
<path class="st8" d="M270,684.2h-23.9c-8.6,0-15.6-7-15.6-15.6v-23.9c0-8.6,7-15.6,15.6-15.6H270c8.6,0,15.6,7,15.6,15.6v23.9
	C285.5,677.2,278.6,684.2,270,684.2z"/>
<path class="st9" d="M366.6,684.2h-23.9c-8.6,0-15.6-7-15.6-15.6v-23.9c0-8.6,7-15.6,15.6-15.6h23.9c8.6,0,15.6,7,15.6,15.6v23.9
	C382.2,677.2,375.2,684.2,366.6,684.2z"/>
<path class="st8" d="M463.3,684.2h-23.9c-8.6,0-15.6-7-15.6-15.6v-23.9c0-8.6,7-15.6,15.6-15.6h23.9c8.6,0,15.6,7,15.6,15.6v23.9
	C478.9,677.2,471.9,684.2,463.3,684.2z"/>
<path class="st8" d="M560,684.2h-23.9c-8.6,0-15.6-7-15.6-15.6v-23.9c0-8.6,7-15.6,15.6-15.6H560c8.6,0,15.6,7,15.6,15.6v23.9
	C575.5,677.2,568.6,684.2,560,684.2z"/>
<path class="st8" d="M656.6,684.2h-23.9c-8.6,0-15.6-7-15.6-15.6v-23.9c0-8.6,7-15.6,15.6-15.6h23.9c8.6,0,15.6,7,15.6,15.6v23.9
	C672.2,677.2,665.2,684.2,656.6,684.2z"/>
<ellipse transform="matrix(0.7071 -0.7071 0.7071 0.7071 -251.924 712.5562)" class="st1" cx="734.2" cy="660.4" rx="158.3" ry="158.3"/>
<circle class="st3" cx="725.8" cy="652" r="158.3"/>
<path class="st6" d="M884.1,652c0,87.4-70.9,158.3-158.3,158.3c-43.7,0-83.3-17.7-111.9-46.4L837.7,540
	C866.3,568.7,884.1,608.3,884.1,652z"/>
<circle class="st10" cx="725.8" cy="652" r="130.5"/>
<path class="st11" d="M612,715.9c-35-62.2-13.5-141.2,48.5-177s141.2-15,177.6,46.5c-32.5-54.5-108.4-69.7-170.3-34
	C605.8,587.2,581,660.6,612,715.9z"/>
<g>
	<g>
		<circle class="st2" cx="725.8" cy="541.6" r="7.3"/>
		<path class="st2" d="M676.9,552.7c2,3.5,0.8,7.9-2.7,10c-3.5,2-7.9,0.8-10-2.7c-2-3.5-0.8-7.9,2.7-10
			C670.4,548,674.9,549.2,676.9,552.7z"/>
		<path class="st2" d="M633.8,590.4c3.5,2,4.7,6.5,2.7,10c-2,3.5-6.5,4.7-10,2.7c-3.5-2-4.7-6.5-2.7-10
			C625.8,589.6,630.3,588.4,633.8,590.4z"/>
		<circle class="st2" cx="615.3" cy="652" r="7.3"/>
		<path class="st2" d="M626.5,700.9c3.5-2,7.9-0.8,10,2.7c2,3.5,0.8,7.9-2.7,10c-3.5,2-7.9,0.8-10-2.7
			C621.8,707.3,623,702.9,626.5,700.9z"/>
		<path class="st2" d="M664.2,744c2-3.5,6.5-4.7,10-2.7c3.5,2,4.7,6.5,2.7,10c-2,3.5-6.5,4.7-10,2.7
			C663.4,751.9,662.2,747.4,664.2,744z"/>
		<circle class="st2" cx="725.8" cy="762.4" r="7.3"/>
		<path class="st2" d="M774.7,751.2c-2-3.5-0.8-7.9,2.7-10c3.5-2,7.9-0.8,10,2.7c2,3.5,0.8,7.9-2.7,10
			C781.1,755.9,776.7,754.7,774.7,751.2z"/>
		<path class="st2" d="M817.7,713.5c-3.5-2-4.7-6.5-2.7-10c2-3.5,6.5-4.7,10-2.7c3.5,2,4.7,6.5,2.7,10
			C825.7,714.3,821.2,715.5,817.7,713.5z"/>
		<circle class="st2" cx="836.2" cy="652" r="7.3"/>
		<path class="st2" d="M825,603.1c-3.5,2-7.9,0.8-10-2.7c-2-3.5-0.8-7.9,2.7-10c3.5-2,7.9-0.8,10,2.7
			C829.7,596.6,828.5,601.1,825,603.1z"/>
		<path class="st2" d="M787.3,560c-2,3.5-6.5,4.7-10,2.7c-3.5-2-4.7-6.5-2.7-10c2-3.5,6.5-4.7,10-2.7
			C788.1,552,789.3,556.5,787.3,560z"/>
	</g>
</g>
<g>
	<path class="st3" d="M725.8,675.4c-2.7,0-5-2.2-5-5V564.9c0-2.7,2.2-5,5-5c2.7,0,5,2.2,5,5v105.6
		C730.7,673.2,728.5,675.4,725.8,675.4z"/>
</g>
<g>
	<path class="st3" d="M797,658.4h-89.8c-3.5,0-6.4-2.9-6.4-6.4c0-3.5,2.9-6.4,6.4-6.4H797c3.5,0,6.4,2.9,6.4,6.4
		C803.4,655.5,800.6,658.4,797,658.4z"/>
</g>
<circle class="st3" cx="725.8" cy="652" r="14"/>
<path class="st7" d="M327.3,623.4l-12.6-54.7c8.2-15.3,12.6-32.4,12.6-49.9c0-58.2-47.4-105.6-105.6-105.6
	c-58.3,0-105.7,47.4-105.7,105.6c0,58.3,47.4,105.7,105.7,105.7c15.7,0,31.4-3.7,45.4-10.4l52.4,16.5
	C324,632.1,328.4,628,327.3,623.4z"/>
<path class="st3" d="M318.9,615l-12.6-54.7c8.2-15.3,12.6-32.4,12.6-49.9c0-58.2-47.4-105.6-105.6-105.6
	c-58.3,0-105.7,47.4-105.7,105.6c0,58.3,47.4,105.7,105.7,105.7c15.7,0,31.4-3.7,45.4-10.4l52.4,16.5
	C315.6,623.7,320,619.6,318.9,615z"/>
<path class="st6" d="M197.3,567.2c-1.7,0-3.2-0.6-4.4-1.8l-42.5-42.6c-1.2-1.2-1.8-2.7-1.8-4.4c0-1.7,0.6-3.2,1.8-4.4l12.5-12.5
	c1.2-1.2,2.7-1.8,4.4-1.8c1.6,0,3.2,0.6,4.4,1.8l25.6,25.6l68.7-68.7c1.2-1.2,2.7-1.8,4.4-1.8c1.6,0,3.2,0.6,4.4,1.8l12.6,12.6
	c1.2,1.2,1.8,2.7,1.8,4.4c0,1.7-0.6,3.2-1.8,4.4l-85.6,85.6C200.5,566.6,198.9,567.2,197.3,567.2z"/>
<path class="st8" d="M192.3,566.2c-1.7,0-3.2-0.6-4.4-1.8l-42.5-42.6c-1.2-1.2-1.8-2.7-1.8-4.4c0-1.7,0.6-3.2,1.8-4.4l12.5-12.5
	c1.2-1.2,2.7-1.8,4.4-1.8c1.6,0,3.2,0.6,4.4,1.8l25.6,25.6l68.7-68.7c1.2-1.2,2.7-1.8,4.4-1.8c1.6,0,3.2,0.6,4.4,1.8l12.6,12.6
	c1.2,1.2,1.8,2.7,1.8,4.4c0,1.7-0.6,3.2-1.8,4.4l-85.6,85.6C195.5,565.6,193.9,566.2,192.3,566.2z"/>
</svg>
